<svg xmlns="http://www.w3.org/2000/svg" width="820.14" height="876.766" viewBox="0 0 820.14 876.766">
  <g id="Group_178" data-name="Group 178" transform="translate(-14796.86 -6498.75)">
    <g id="Icon_ionic-ios-gift" data-name="Icon ionic-ios-gift" transform="translate(14835.485 6538.5)">
      <g id="Path_367" data-name="Path 367" transform="translate(0 0)">
        <path d="M 732.4362182617188 306.380615234375 L 10.45320796966553 306.380615234375 C -5.029125690460205 306.380615234375 -17.62501525878906 293.7847290039062 -17.62501525878906 278.3022766113281 L -17.62501525878906 242.9109497070312 C -17.62501525878906 200.1077270507812 17.19787406921387 165.2848358154297 60.00109481811523 165.2848358154297 L 166.3641510009766 165.2848358154297 C 157.1931304931641 147.7705841064453 152.2533111572266 128.3030700683594 152.2533111572266 108.423942565918 C 152.2533111572266 38.30005645751953 211.7642059326172 -18.74994468688965 284.9129943847656 -18.74994468688965 C 318.9132995605469 -18.74994468688965 348.8145751953125 -6.307798862457275 371.4447631835938 16.80184173583984 C 394.074951171875 -6.307798862457275 423.9762268066406 -18.74994468688965 457.9765319824219 -18.74994468688965 C 531.1253051757812 -18.74994468688965 590.63623046875 38.30005645751953 590.63623046875 108.423942565918 C 590.63623046875 128.2544708251953 585.6727294921875 147.7273712158203 576.46142578125 165.2848358154297 L 682.888427734375 165.2848358154297 C 725.691650390625 165.2848358154297 760.5145263671875 200.1077270507812 760.5145263671875 242.9109497070312 L 760.5145263671875 278.3022766113281 C 760.5145263671875 293.7847290039062 747.9186401367188 306.380615234375 732.4362182617188 306.380615234375 Z M 419.9636535644531 144.050048828125 L 457.9765319824219 144.050048828125 C 479.2796630859375 144.050048828125 496.6109924316406 128.0682830810547 496.6109924316406 108.423942565918 C 496.6109924316406 88.77960968017578 479.2796630859375 72.79783630371094 457.9765319824219 72.79783630371094 C 444.9129028320312 72.79783630371094 423.8349304199219 82.61763763427734 419.9636535644531 144.050048828125 Z M 284.9129943847656 72.79783630371094 C 263.60986328125 72.79783630371094 246.2785339355469 88.77960968017578 246.2785339355469 108.423942565918 C 246.2785339355469 128.0682830810547 263.60986328125 144.050048828125 284.9129943847656 144.050048828125 L 322.9258728027344 144.050048828125 C 319.0545959472656 82.61763763427734 297.9766235351562 72.79783630371094 284.9129943847656 72.79783630371094 Z" stroke="none"/>
        <path d="M 732.4362182617188 285.380615234375 C 736.3292846679688 285.380615234375 739.5145263671875 282.1954040527344 739.5145263671875 278.3023376464844 L 739.5145263671875 242.9110107421875 C 739.5145263671875 211.5896759033203 714.209716796875 186.2848815917969 682.8883666992188 186.2848815917969 L 533.7139892578125 186.2848815917969 C 555.6566162109375 166.8196716308594 569.63623046875 139.2144775390625 569.63623046875 108.423942565918 C 569.63623046875 49.85127639770508 519.5574340820312 2.249943733215332 457.9765014648438 2.249943733215332 C 421.5235595703125 2.249943733215332 390.9099731445312 19.41474342346191 371.4447631835938 50.73607635498047 C 351.9795532226562 19.41474342346191 321.3660888671875 2.249943733215332 284.9130249023438 2.249943733215332 C 223.3320922851562 2.249943733215332 173.2534332275391 49.85127639770508 173.2534332275391 108.423942565918 C 173.2534332275391 139.2144775390625 187.0559692382812 166.8196716308594 209.1755676269531 186.2848815917969 L 60.00116348266602 186.2848815917969 C 28.67983055114746 186.2848815917969 3.375029802322388 211.5896759033203 3.375029802322388 242.9110107421875 L 3.375029802322388 278.3023376464844 C 3.375029802322388 282.1954040527344 6.560229778289795 285.380615234375 10.45329666137695 285.380615234375 L 732.4362182617188 285.380615234375 M 457.9765014648438 51.79780960083008 C 490.8905029296875 51.79780960083008 517.6110229492188 77.10260772705078 517.6110229492188 108.423942565918 C 517.6110229492188 139.7452697753906 490.8905029296875 165.0500793457031 457.9765014648438 165.0500793457031 C 425.0626220703125 165.0500793457031 398.3422241210938 165.0500793457031 398.3422241210938 165.0500793457031 C 398.3422241210938 80.11087799072266 425.0626220703125 51.79780960083008 457.9765014648438 51.79780960083008 M 344.5473022460938 165.0500793457031 C 344.5473022460938 165.0500793457031 317.826904296875 165.0500793457031 284.9129028320312 165.0500793457031 C 251.9990234375 165.0500793457031 225.2786254882812 139.7452697753906 225.2786254882812 108.423942565918 C 225.2786254882812 77.10260772705078 251.9990234375 51.79780960083008 284.9130249023438 51.79780960083008 C 317.826904296875 51.79780960083008 344.5473022460938 80.11087799072266 344.5473022460938 165.0500793457031 M 732.4362182617188 327.380615234375 L 10.45329666137695 327.380615234375 C -16.60857009887695 327.380615234375 -38.62496948242188 305.3641967773438 -38.62496948242188 278.3023376464844 L -38.62496948242188 242.9110107421875 C -38.62496948242188 188.5283508300781 5.618496417999268 144.2848815917969 60.00116348266602 144.2848815917969 L 135.86767578125 144.2848815917969 C 132.8313446044922 132.6412506103516 131.2534332275391 120.6004028320312 131.2534332275391 108.423942565918 C 131.2534332275391 26.7204761505127 200.1848907470703 -39.75005722045898 284.9130249023438 -39.75005722045898 C 317.2442321777344 -39.75005722045898 347.0753784179688 -29.61760711669922 371.4447631835938 -11.00785255432129 C 395.8141479492188 -29.61760711669922 425.6452941894531 -39.75005722045898 457.9765014648438 -39.75005722045898 C 542.7047729492188 -39.75005722045898 611.63623046875 26.7204761505127 611.63623046875 108.423942565918 C 611.63623046875 120.5868377685547 610.0487670898438 132.6280364990234 606.9940795898438 144.2848815917969 L 682.8883666992188 144.2848815917969 C 737.2710571289062 144.2848815917969 781.5145263671875 188.5283508300781 781.5145263671875 242.9110107421875 L 781.5145263671875 278.3023376464844 C 781.5145263671875 305.3641967773438 759.4981079101562 327.380615234375 732.4362182617188 327.380615234375 Z M 443.5838012695312 123.0500793457031 L 457.9765014648438 123.0500793457031 C 467.7002258300781 123.0500793457031 475.6110229492188 116.4888763427734 475.6110229492188 108.423942565918 C 475.6110229492188 100.3590087890625 467.7002258300781 93.79781341552734 457.9765014648438 93.79781341552734 C 453.2266845703125 93.79781341552734 447.2189025878906 103.0993576049805 443.5838012695312 123.0500793457031 Z M 284.9130249023438 93.79781341552734 C 275.1894226074219 93.79781341552734 267.2786254882812 100.3590087890625 267.2786254882812 108.423942565918 C 267.2786254882812 116.4888763427734 275.1893005371094 123.0500793457031 284.9129028320312 123.0500793457031 L 299.3057250976562 123.0500793457031 C 295.6706237792969 103.0993576049805 289.662841796875 93.79781341552734 284.9130249023438 93.79781341552734 Z" stroke="none" fill="#fff"/>
      </g>
      <g id="Path_368" data-name="Path 368" transform="translate(27.188 316.061)">
        <path d="M 340.4827575683594 499.9544372558594 L 319.4827575683594 499.9544372558594 L 61.12614822387695 499.9544372558594 C 18.32291793823242 499.9544372558594 -16.5000057220459 465.1315002441406 -16.5000057220459 422.328369140625 L -16.5000057220459 29.48466491699219 C -16.5000057220459 10.09928131103516 -0.7288519740104675 -5.671872615814209 18.65653228759766 -5.671872615814209 L 319.4827575683594 -5.671872615814209 L 340.4827575683594 -5.671872615814209 L 340.4827575683594 15.32812690734863 L 340.4827575683594 478.9544372558594 L 340.4827575683594 499.9544372558594 Z" stroke="none"/>
        <path d="M 18.65646362304688 15.32809448242188 C 10.8704833984375 15.32809448242188 4.499969482421875 21.69857788085938 4.499969482421875 29.48468017578125 L 4.499969482421875 422.328369140625 C 4.499969482421875 453.4726867675781 29.98178100585938 478.9543762207031 61.12606811523438 478.9543762207031 L 319.4827880859375 478.9543762207031 L 319.4827880859375 15.32809448242188 L 18.65646362304688 15.32809448242188 M 18.65646362304688 -26.67190551757812 L 319.4827880859375 -26.67190551757812 L 361.4827880859375 -26.67190551757812 L 361.4827880859375 15.32809448242188 L 361.4827880859375 478.9543762207031 L 361.4827880859375 520.9544067382812 L 319.4827880859375 520.9544067382812 L 61.12606811523438 520.9544067382812 C 6.74346923828125 520.9544067382812 -37.50003051757812 476.7109680175781 -37.50003051757812 422.328369140625 L -37.50003051757812 29.48468017578125 C -37.50003051757812 -1.480224609375 -12.30831909179688 -26.67190551757812 18.65646362304688 -26.67190551757812 Z" stroke="none" fill="#fff"/>
      </g>
      <g id="Path_369" data-name="Path 369" transform="translate(377.234 316.061)">
        <path d="M 277.3409729003906 499.9544372558594 L 18.98435401916504 499.9544372558594 L -2.015645980834961 499.9544372558594 L -2.015645980834961 478.9544372558594 L -2.015645980834961 15.32812690734863 L -2.015645980834961 -5.671872615814209 L 18.98435401916504 -5.671872615814209 L 319.8105773925781 -5.671872615814209 C 339.1959838867188 -5.671872615814209 354.9671325683594 10.09928131103516 354.9671325683594 29.48466491699219 L 354.9671325683594 422.328369140625 C 354.9671325683594 465.1315002441406 320.1441955566406 499.9544372558594 277.3409729003906 499.9544372558594 Z" stroke="none"/>
        <path d="M 18.98434448242188 15.32809448242188 L 18.98434448242188 478.9543762207031 L 277.3409423828125 478.9543762207031 C 308.4853515625 478.9543762207031 333.9671325683594 453.4726867675781 333.9671325683594 422.328369140625 L 333.9671325683594 29.48468017578125 C 333.9671325683594 21.69857788085938 327.5967407226562 15.32809448242188 319.810546875 15.32809448242188 L 18.98434448242188 15.32809448242188 M -23.01565551757812 -26.67190551757812 L 18.98434448242188 -26.67190551757812 L 319.810546875 -26.67190551757812 C 350.7754516601562 -26.67190551757812 375.9671325683594 -1.480224609375 375.9671325683594 29.48468017578125 L 375.9671325683594 422.328369140625 C 375.9671325683594 476.7109680175781 331.7236328125 520.9544067382812 277.3409423828125 520.9544067382812 L 18.98434448242188 520.9544067382812 L -23.01565551757812 520.9544067382812 L -23.01565551757812 478.9543762207031 L -23.01565551757812 15.32809448242188 L -23.01565551757812 -26.67190551757812 Z" stroke="none" fill="#fff"/>
      </g>
      <rect id="Rectangle_153" data-name="Rectangle 153" width="176" height="464" transform="translate(283.515 331.5)"/>
    </g>
    <circle id="Ellipse_72" data-name="Ellipse 72" cx="186" cy="186" r="186" transform="translate(15021 6898)" fill="#fff"/>
    <path id="Icon_awesome-play" data-name="Icon awesome-play" d="M178.887,90.486,30.517,2.771C18.462-4.353,0,2.56,0,20.179V195.567a20.214,20.214,0,0,0,30.517,17.408L178.887,125.3a20.211,20.211,0,0,0,0-34.816Z" transform="translate(15136.607 6976.21)"/>
  </g>
</svg>
