<svg xmlns="http://www.w3.org/2000/svg" width="1142.383" height="999.585" viewBox="0 0 1142.383 999.585">
  <path id="Icon_awesome-camera" data-name="Icon awesome-camera" d="M1142.383,252.146v642.59a107.126,107.126,0,0,1-107.1,107.1H107.1A107.126,107.126,0,0,1,0,894.736V252.146a107.126,107.126,0,0,1,107.1-107.1H303.445l27.444-73.407A106.949,106.949,0,0,1,431.071,2.25H711.089A106.949,106.949,0,0,1,811.27,71.641l27.667,73.407h196.347A107.126,107.126,0,0,1,1142.383,252.146Zm-303.445,321.3C838.937,425.735,718.9,305.7,571.191,305.7S303.445,425.735,303.445,573.441,423.485,841.187,571.191,841.187,838.937,721.148,838.937,573.441Zm-71.4,0c0,108.214-88.133,196.347-196.347,196.347S374.844,681.655,374.844,573.441s88.133-196.347,196.347-196.347S767.538,465.227,767.538,573.441Z" transform="translate(0 -2.25)"/>
</svg>
